<?xml version="1.0" encoding="UTF-8"?><svg id="Layer_2" xmlns="http://www.w3.org/2000/svg" xmlns:xlink="http://www.w3.org/1999/xlink" viewBox="0 0 233.84 272.23"><defs><style>.cls-1{fill:none;}.cls-2{clip-path:url(#clippath);}.cls-3{fill:#44bca0;}.cls-4{clip-path:url(#clippath-1);}</style><clipPath id="clippath"><rect class="cls-1" width="233.84" height="272.23"/></clipPath><clipPath id="clippath-1"><rect class="cls-1" width="233.84" height="272.23"/></clipPath></defs><g id="Layer_1-2"><g class="cls-2"><g class="cls-4"><path class="cls-3" d="m59.59,189.05l-5.28,17.84c-.25.84.23,1.72,1.07,1.97.15.04.3.07.45.07.69,0,1.32-.45,1.52-1.14l5.02-16.95c14.28,8.85,31.1,13.97,49.1,13.97s34.82-5.12,49.1-13.97l5.02,16.95c.2.69.84,1.14,1.52,1.14.15,0,.3-.02.45-.07.84-.25,1.32-1.13,1.07-1.97l-5.28-17.84c25.08-16.79,41.62-45.37,41.62-77.75,0-.42,0-.84,0-1.26,0-.06-.01-.13-.02-.19,0-.04,0-.08-.01-.12-.14-.69-.72-1.21-1.45-1.25-.04,0-.07-.01-.11-.01h-63.88l-26.13-88.27c.15-.24.24-.52.24-.82,0-.88-.7-1.59-1.58-1.59h-.56c-51.56,0-93.5,41.94-93.5,93.5,0,32.38,16.54,60.96,41.62,77.75m51.88,12.58c-17.7,0-34.22-5.12-48.17-13.95l22.51-76.03h51.32l22.51,76.03c-13.95,8.83-30.47,13.95-48.17,13.95m90.32-89.98c-.12,30.78-15.71,57.98-39.39,74.2l-21.97-74.2h61.35Zm-115.05-3.17l24.72-83.5,24.72,83.5h-49.44Zm22.59-87.48l-48.81,164.86c-23.77-16.29-39.39-43.63-39.39-74.55,0-49.09,39.37-89.16,88.2-90.3"/></g></g></g></svg>